<svg width="24" height="24" viewBox="0 0 24 24" fill="none" xmlns="http://www.w3.org/2000/svg">
  <path d="M9 19V13C9 12.4477 8.55228 12 8 12H6C5.44772 12 5 12.4477 5 13V19C5 19.5523 5.44772 20 6 20H8C8.55228 20 9 19.5523 9 19Z" stroke="currentColor" stroke-width="2" stroke-linecap="round" stroke-linejoin="round"/>
  <path d="M9 19V13M9 19C9 19.5523 8.55228 20 8 20H6C5.44772 20 5 19.5523 5 19V13C5 12.4477 5.44772 12 6 12H8C8.55228 12 9 12.4477 9 13M9 19V9C9 8.44772 9.44772 8 10 8H12C12.5523 8 13 8.44772 13 9V19M13 19V9M13 19C13 19.5523 12.5523 20 12 20H10C9.44772 20 9 19.5523 9 19V9C9 8.44772 9.44772 8 10 8H12C12.5523 8 13 8.44772 13 9M13 19V5C13 4.44772 13.4477 4 14 4H16C16.5523 4 17 4.44772 17 5V19C17 19.5523 16.5523 20 16 20H14C13.4477 20 13 19.5523 13 19Z" stroke="currentColor" stroke-width="2" stroke-linecap="round" stroke-linejoin="round"/>
</svg>
